<mxfile host="app.diagrams.net" modified="2022-09-14T09:46:12.643Z" agent="5.0 (Windows NT 10.0; Win64; x64) AppleWebKit/537.36 (KHTML, like Gecko) Chrome/105.0.0.0 Safari/537.36" etag="zcLcdYHrwuBVweOoEZbl" version="20.3.0" type="github">
  <diagram id="j9tNzVP-D8R7nncAc0zW" name="Страница 1">
    <mxGraphModel dx="584" dy="681" grid="1" gridSize="10" guides="1" tooltips="1" connect="1" arrows="1" fold="1" page="1" pageScale="1" pageWidth="827" pageHeight="1169" math="0" shadow="0">
      <root>
        <mxCell id="0" />
        <mxCell id="1" parent="0" />
        <mxCell id="KA42aVoV2NwXhPdS14lZ-2" value="DocumentFormController.cs" style="shape=umlLifeline;perimeter=lifelinePerimeter;whiteSpace=wrap;html=1;container=1;collapsible=0;recursiveResize=0;outlineConnect=0;sketch=1;" vertex="1" parent="1">
          <mxGeometry x="40" y="40" width="160" height="840" as="geometry" />
        </mxCell>
      </root>
    </mxGraphModel>
  </diagram>
</mxfile>
